<svg id="svg" version="1.1" xmlns="http://www.w3.org/2000/svg" xmlns:xlink="http://www.w3.org/1999/xlink" width="400" height="281.25" viewBox="0, 0, 400,281.25"><g id="svgg"><path id="path0" d="M165.267 87.552 C 164.408 88.032,162.589 89.848,162.588 90.225 C 162.588 90.418,162.461 90.577,162.307 90.577 C 162.120 90.577,162.025 107.501,162.025 140.788 C 162.025 174.074,162.120 190.999,162.307 190.999 C 162.461 190.999,162.588 191.165,162.588 191.367 C 162.588 191.804,163.309 192.609,164.402 193.390 C 164.834 193.699,165.327 194.090,165.495 194.259 C 165.803 194.567,165.906 194.521,166.913 193.625 C 167.115 193.445,167.838 193.135,168.521 192.936 C 169.203 192.736,169.824 192.493,169.902 192.394 C 169.979 192.296,170.644 192.066,171.380 191.883 C 172.714 191.553,173.840 190.837,173.840 190.320 C 173.840 189.807,176.088 187.950,176.933 187.764 C 177.398 187.662,177.778 187.476,177.778 187.351 C 177.778 187.226,178.221 187.040,178.762 186.938 C 179.304 186.837,179.747 186.653,179.747 186.530 C 179.747 186.407,180.443 186.139,181.294 185.935 C 182.145 185.731,182.841 185.464,182.841 185.341 C 182.841 185.218,183.284 185.034,183.826 184.932 C 184.367 184.831,184.810 184.618,184.810 184.461 C 184.810 184.069,187.190 181.716,187.586 181.716 C 187.761 181.716,187.904 181.598,187.904 181.455 C 187.904 181.311,188.601 181.038,189.451 180.847 C 190.302 180.657,190.999 180.409,190.999 180.296 C 190.999 180.183,191.442 180.008,191.983 179.906 C 192.525 179.804,192.968 179.614,192.968 179.483 C 192.968 179.352,193.300 179.162,193.707 179.060 C 194.114 178.957,194.926 178.406,195.511 177.834 C 196.985 176.393,198.107 175.536,198.523 175.531 C 198.717 175.529,198.875 175.407,198.875 175.259 C 198.875 175.111,199.318 174.907,199.859 174.806 C 200.401 174.704,200.844 174.525,200.844 174.408 C 200.844 174.290,201.603 174.045,202.532 173.862 C 203.460 173.679,204.219 173.410,204.219 173.263 C 204.219 173.116,204.413 172.996,204.650 172.996 C 204.887 172.996,205.154 172.806,205.243 172.574 C 205.332 172.342,205.523 172.152,205.667 172.152 C 205.812 172.152,206.411 171.646,207.000 171.027 C 207.589 170.408,208.210 169.902,208.381 169.902 C 208.552 169.902,208.793 169.741,208.917 169.544 C 209.200 169.094,210.541 168.495,211.265 168.495 C 211.567 168.495,211.814 168.380,211.814 168.239 C 211.814 168.097,212.321 167.896,212.940 167.792 C 213.558 167.687,214.065 167.497,214.065 167.370 C 214.065 167.242,214.563 167.054,215.172 166.951 C 216.283 166.763,217.440 166.007,217.440 165.468 C 217.440 165.310,217.630 165.107,217.862 165.018 C 218.094 164.929,218.284 164.662,218.284 164.425 C 218.284 164.188,218.450 163.994,218.653 163.994 C 218.856 163.994,219.297 163.739,219.632 163.426 C 219.968 163.113,220.625 162.781,221.092 162.687 C 221.559 162.594,221.941 162.422,221.941 162.305 C 221.941 162.188,222.511 161.949,223.207 161.773 C 223.903 161.598,224.473 161.344,224.473 161.209 C 224.473 161.074,225.042 160.879,225.738 160.774 C 226.435 160.670,227.004 160.491,227.004 160.377 C 227.004 160.263,227.447 160.009,227.989 159.813 C 228.530 159.617,228.973 159.294,228.973 159.095 C 228.973 158.434,230.621 156.997,231.775 156.651 C 232.400 156.464,232.911 156.215,232.911 156.098 C 232.911 155.982,233.418 155.801,234.037 155.696 C 234.655 155.592,235.162 155.411,235.162 155.294 C 235.162 155.177,235.668 154.930,236.287 154.745 C 236.906 154.559,237.412 154.300,237.412 154.168 C 237.412 154.037,237.738 153.847,238.136 153.747 C 238.534 153.647,239.389 153.024,240.035 152.362 C 240.681 151.700,241.621 150.978,242.124 150.757 C 242.627 150.536,243.038 150.268,243.038 150.162 C 243.038 150.057,243.734 149.814,244.585 149.624 C 245.436 149.433,246.132 149.185,246.132 149.072 C 246.132 148.959,246.575 148.784,247.117 148.682 C 247.658 148.581,248.101 148.391,248.101 148.260 C 248.101 148.129,248.410 147.944,248.787 147.849 C 249.165 147.755,250.158 146.981,250.995 146.131 C 251.832 145.281,252.663 144.585,252.841 144.585 C 253.019 144.585,253.165 144.482,253.165 144.356 C 253.165 144.230,253.608 143.954,254.149 143.741 C 254.691 143.529,255.134 143.249,255.134 143.119 C 255.134 142.989,255.450 142.763,255.837 142.616 C 256.224 142.469,256.540 142.229,256.540 142.083 C 256.540 141.937,256.920 141.733,257.384 141.632 C 257.848 141.530,258.228 141.330,258.228 141.187 C 258.228 141.045,258.449 140.915,258.720 140.900 C 258.991 140.884,258.801 140.739,258.298 140.578 C 257.795 140.416,257.384 140.176,257.384 140.044 C 257.384 139.911,257.200 139.803,256.976 139.803 C 256.752 139.803,256.467 139.645,256.343 139.451 C 256.219 139.257,255.738 138.909,255.274 138.678 C 254.810 138.446,254.329 138.098,254.205 137.905 C 254.082 137.711,253.797 137.553,253.573 137.553 C 253.348 137.553,253.165 137.426,253.165 137.271 C 253.165 137.117,252.999 136.990,252.798 136.990 C 252.596 136.990,251.655 136.243,250.706 135.329 C 249.705 134.364,248.620 133.588,248.120 133.478 C 247.645 133.374,247.257 133.183,247.257 133.054 C 247.257 132.926,246.751 132.735,246.132 132.630 C 245.513 132.526,245.007 132.348,245.007 132.237 C 245.007 132.125,244.384 131.874,243.623 131.678 C 242.862 131.483,242.169 131.143,242.085 130.922 C 242.000 130.701,241.790 130.520,241.618 130.520 C 241.447 130.520,240.789 130.014,240.158 129.395 C 239.527 128.776,238.841 128.270,238.633 128.270 C 238.426 128.270,238.256 128.157,238.256 128.019 C 238.256 127.881,237.940 127.689,237.553 127.592 C 237.166 127.495,236.850 127.303,236.850 127.166 C 236.850 127.028,236.217 126.753,235.443 126.555 C 234.669 126.357,234.037 126.106,234.037 125.998 C 234.037 125.890,233.594 125.718,233.052 125.616 C 232.511 125.515,232.068 125.321,232.068 125.185 C 232.068 125.050,231.715 124.862,231.283 124.767 C 230.852 124.672,230.187 124.204,229.806 123.727 C 228.468 122.048,227.839 121.543,226.864 121.360 C 226.322 121.258,225.879 121.063,225.879 120.925 C 225.879 120.788,225.572 120.675,225.196 120.675 C 224.820 120.675,224.342 120.504,224.133 120.295 C 223.924 120.086,223.092 119.746,222.284 119.539 C 221.477 119.332,220.816 119.060,220.816 118.934 C 220.816 118.809,220.625 118.706,220.391 118.706 C 220.157 118.706,219.750 118.453,219.485 118.143 C 219.220 117.834,218.841 117.581,218.644 117.581 C 218.446 117.581,218.284 117.387,218.284 117.150 C 218.284 116.913,218.094 116.646,217.862 116.557 C 217.630 116.468,217.440 116.219,217.440 116.004 C 217.440 115.788,217.323 115.612,217.179 115.612 C 217.035 115.612,216.737 115.431,216.515 115.209 C 216.293 114.987,215.303 114.642,214.315 114.442 C 213.326 114.242,212.350 113.917,212.146 113.720 C 211.941 113.523,211.467 113.361,211.091 113.361 C 210.715 113.361,210.408 113.247,210.408 113.108 C 210.408 112.968,210.028 112.722,209.564 112.560 C 209.100 112.398,208.720 112.132,208.720 111.970 C 208.720 111.807,208.549 111.674,208.340 111.674 C 207.895 111.674,206.188 110.110,206.188 109.702 C 206.188 109.549,206.012 109.423,205.797 109.423 C 205.581 109.423,205.336 109.245,205.253 109.028 C 205.170 108.810,204.713 108.547,204.238 108.443 C 203.764 108.339,203.376 108.160,203.376 108.046 C 203.376 107.932,202.553 107.675,201.547 107.475 C 200.541 107.275,199.719 107.013,199.719 106.892 C 199.719 106.771,199.399 106.591,199.008 106.493 C 198.234 106.299,198.054 106.162,195.820 104.076 C 194.991 103.301,194.010 102.592,193.640 102.499 C 193.270 102.406,192.968 102.230,192.968 102.107 C 192.968 101.985,192.303 101.727,191.491 101.534 C 190.679 101.342,189.951 101.101,189.873 101.000 C 189.796 100.899,189.190 100.658,188.528 100.464 C 187.323 100.112,184.810 97.900,184.810 97.191 C 184.810 97.006,184.114 96.688,183.263 96.484 C 182.412 96.280,181.716 96.012,181.716 95.889 C 181.716 95.766,181.273 95.582,180.731 95.481 C 180.190 95.379,179.747 95.196,179.747 95.074 C 179.747 94.952,179.114 94.700,178.340 94.515 C 177.567 94.329,176.934 94.077,176.934 93.955 C 176.934 93.832,176.627 93.655,176.252 93.561 C 175.452 93.360,173.952 91.936,173.698 91.136 C 173.601 90.829,173.213 90.501,172.836 90.406 C 172.460 90.312,172.152 90.139,172.152 90.022 C 172.152 89.905,171.392 89.648,170.464 89.451 C 169.536 89.254,168.776 88.994,168.776 88.873 C 168.776 88.752,168.397 88.569,167.932 88.467 C 167.468 88.365,167.089 88.185,167.089 88.068 C 167.089 87.619,165.799 87.254,165.267 87.552 M167.089 91.172 C 167.089 91.463,167.205 91.702,167.348 91.702 C 167.490 91.702,167.690 92.082,167.792 92.546 C 167.894 93.010,168.094 93.390,168.236 93.390 C 168.379 93.390,168.495 93.586,168.495 93.826 C 168.495 94.066,168.875 94.395,169.339 94.557 C 169.803 94.719,170.183 94.960,170.183 95.092 C 170.183 95.225,170.626 95.416,171.167 95.518 C 171.709 95.619,172.152 95.803,172.152 95.925 C 172.152 96.136,172.846 96.234,177.286 96.652 L 179.184 96.831 179.184 97.782 C 179.184 98.306,179.311 98.734,179.466 98.734 C 179.620 98.734,179.747 99.031,179.747 99.394 C 179.747 100.323,180.854 101.501,181.930 101.717 C 182.431 101.817,182.841 101.999,182.841 102.121 C 182.841 102.243,183.790 102.432,184.951 102.541 C 186.111 102.649,187.060 102.850,187.060 102.987 C 187.060 103.123,187.937 103.235,189.009 103.235 L 190.958 103.235 191.151 104.782 C 191.258 105.633,191.457 106.329,191.594 106.329 C 191.730 106.329,191.842 106.473,191.842 106.648 C 191.842 107.703,194.341 108.839,196.695 108.854 C 197.275 108.858,197.750 108.987,197.750 109.142 C 197.750 109.297,198.319 109.423,199.015 109.423 C 199.712 109.423,200.281 109.555,200.281 109.717 C 200.281 109.878,200.410 110.163,200.567 110.349 C 201.715 111.715,202.240 112.195,202.769 112.363 C 203.103 112.469,203.376 112.735,203.376 112.955 C 203.376 113.642,204.303 114.477,205.265 114.657 C 205.773 114.753,206.188 114.943,206.188 115.081 C 206.188 115.218,206.980 115.343,207.947 115.359 C 210.469 115.399,211.094 115.625,211.200 116.537 C 211.249 116.956,211.397 117.300,211.530 117.300 C 211.662 117.300,211.914 117.735,212.090 118.268 C 212.331 118.999,212.647 119.314,213.378 119.555 C 213.910 119.731,214.346 119.992,214.346 120.134 C 214.346 120.277,214.653 120.394,215.029 120.394 C 215.405 120.394,215.916 120.598,216.165 120.847 C 216.549 121.230,219.571 121.667,222.678 121.788 C 222.852 121.795,223.078 122.433,223.180 123.207 C 223.283 123.980,223.458 124.613,223.570 124.613 C 223.681 124.613,223.942 124.997,224.150 125.465 C 224.440 126.121,224.813 126.394,225.766 126.649 C 226.447 126.831,227.004 127.070,227.004 127.179 C 227.004 127.289,227.954 127.467,229.114 127.576 C 230.274 127.685,231.224 127.879,231.224 128.009 C 231.224 128.138,232.078 128.282,233.122 128.328 L 235.021 128.411 235.209 129.950 C 235.312 130.797,235.534 131.535,235.701 131.591 C 235.869 131.647,236.006 131.844,236.006 132.028 C 236.006 132.932,238.555 133.896,240.942 133.896 C 241.476 133.896,241.913 134.023,241.913 134.177 C 241.913 134.332,242.451 134.460,243.108 134.463 C 244.484 134.468,244.722 134.598,245.259 135.641 C 245.474 136.059,246.012 136.527,246.454 136.681 C 247.011 136.875,247.257 137.152,247.257 137.583 C 247.257 138.370,248.834 139.803,249.699 139.803 C 250.058 139.803,250.352 139.930,250.352 140.084 C 250.352 140.239,250.974 140.366,251.735 140.366 C 254.826 140.366,254.455 141.301,251.258 141.569 C 250.136 141.663,249.044 141.906,248.832 142.108 C 248.619 142.310,248.178 142.696,247.851 142.965 C 247.525 143.234,247.257 143.713,247.257 144.029 C 247.257 144.344,247.041 144.686,246.777 144.787 C 246.141 145.031,245.007 146.028,245.007 146.344 C 245.007 146.997,244.061 147.319,241.226 147.627 C 239.533 147.811,238.077 148.068,237.991 148.199 C 237.905 148.330,237.486 148.522,237.060 148.626 C 236.635 148.730,236.287 148.930,236.287 149.071 C 236.287 149.212,236.089 149.525,235.848 149.766 C 235.606 150.008,235.345 150.681,235.267 151.263 C 234.945 153.666,235.193 153.481,232.003 153.690 C 230.414 153.794,229.072 154.003,229.020 154.155 C 228.969 154.306,228.589 154.431,228.176 154.432 C 226.241 154.436,225.092 155.054,223.616 156.885 C 223.464 157.074,223.262 157.787,223.169 158.468 C 222.979 159.855,222.444 160.056,218.948 160.056 C 218.119 160.056,217.440 160.183,217.440 160.338 C 217.440 160.492,217.196 160.619,216.898 160.619 C 216.599 160.619,216.165 160.809,215.933 161.041 C 215.701 161.273,215.318 161.463,215.083 161.463 C 213.831 161.463,212.232 162.646,211.947 163.783 C 211.841 164.209,211.649 164.557,211.522 164.557 C 211.395 164.557,211.250 164.842,211.201 165.190 C 211.143 165.597,210.885 165.855,210.478 165.913 C 210.130 165.962,209.845 166.120,209.845 166.264 C 209.845 166.408,209.117 166.527,208.228 166.528 C 205.598 166.530,203.376 167.440,203.376 168.515 C 203.376 168.868,202.676 169.618,202.341 169.625 C 202.066 169.631,200.844 170.882,200.844 171.157 C 200.844 171.680,199.919 172.152,198.895 172.152 C 198.265 172.152,197.750 172.260,197.750 172.393 C 197.750 172.525,196.904 172.712,195.871 172.809 C 194.838 172.905,193.920 173.082,193.832 173.201 C 193.743 173.321,193.319 173.600,192.890 173.821 C 192.460 174.043,192.035 174.517,191.945 174.876 C 191.855 175.234,191.678 175.527,191.551 175.527 C 191.424 175.527,191.233 176.224,191.127 177.075 L 190.934 178.622 189.543 178.622 C 187.620 178.622,182.841 179.230,182.841 179.475 C 182.841 179.586,182.465 179.752,182.006 179.844 C 181.547 179.935,180.910 180.272,180.591 180.591 C 180.272 180.910,179.935 181.547,179.844 182.006 C 179.752 182.465,179.566 182.841,179.430 182.841 C 179.295 182.841,179.184 183.266,179.184 183.786 C 179.184 184.813,178.325 185.082,175.035 185.089 C 174.378 185.090,173.840 185.189,173.840 185.308 C 173.840 185.428,173.083 185.669,172.158 185.845 C 171.233 186.021,170.274 186.366,170.028 186.613 C 169.782 186.859,169.408 187.060,169.197 187.060 C 168.987 187.060,168.734 187.314,168.636 187.623 C 168.538 187.932,168.349 188.186,168.217 188.186 C 168.085 188.186,167.894 188.565,167.792 189.030 C 167.690 189.494,167.490 189.873,167.348 189.873 C 167.205 189.873,167.089 190.127,167.089 190.436 C 167.089 190.811,166.901 190.999,166.526 190.999 C 166.217 190.999,165.963 191.134,165.963 191.300 C 165.963 191.466,165.774 191.411,165.541 191.179 C 164.972 190.610,164.891 90.700,165.461 90.510 C 166.172 90.273,167.089 90.645,167.089 91.172 " stroke="none" fill="#fcecec" fill-rule="evenodd"></path><path id="path1" d="M165.461 90.510 C 164.891 90.700,164.972 190.610,165.541 191.179 C 165.774 191.411,165.963 191.466,165.963 191.300 C 165.963 191.134,166.217 190.999,166.526 190.999 C 166.901 190.999,167.089 190.811,167.089 190.436 C 167.089 190.127,167.205 189.873,167.348 189.873 C 167.490 189.873,167.690 189.494,167.792 189.030 C 167.894 188.565,168.085 188.186,168.217 188.186 C 168.349 188.186,168.538 187.932,168.636 187.623 C 168.734 187.314,168.987 187.060,169.197 187.060 C 169.408 187.060,169.782 186.859,170.028 186.613 C 170.274 186.366,171.233 186.021,172.158 185.845 C 173.083 185.669,173.840 185.428,173.840 185.308 C 173.840 185.189,174.378 185.090,175.035 185.089 C 178.325 185.082,179.184 184.813,179.184 183.786 C 179.184 183.266,179.295 182.841,179.430 182.841 C 179.566 182.841,179.752 182.465,179.844 182.006 C 180.057 180.940,180.940 180.057,182.006 179.844 C 182.465 179.752,182.841 179.586,182.841 179.475 C 182.841 179.230,187.620 178.622,189.543 178.622 L 190.934 178.622 191.127 177.075 C 191.233 176.224,191.424 175.527,191.551 175.527 C 191.678 175.527,191.855 175.234,191.945 174.876 C 192.035 174.517,192.460 174.043,192.890 173.821 C 193.319 173.600,193.743 173.321,193.832 173.201 C 193.920 173.082,194.838 172.905,195.871 172.809 C 196.904 172.712,197.750 172.525,197.750 172.393 C 197.750 172.260,198.265 172.152,198.895 172.152 C 199.919 172.152,200.844 171.680,200.844 171.157 C 200.844 170.882,202.066 169.631,202.341 169.625 C 202.676 169.618,203.376 168.868,203.376 168.515 C 203.376 167.440,205.598 166.530,208.228 166.528 C 209.117 166.527,209.845 166.408,209.845 166.264 C 209.845 166.120,210.130 165.962,210.478 165.913 C 210.885 165.855,211.143 165.597,211.201 165.190 C 211.250 164.842,211.395 164.557,211.522 164.557 C 211.649 164.557,211.841 164.209,211.947 163.783 C 212.232 162.646,213.831 161.463,215.083 161.463 C 215.318 161.463,215.701 161.273,215.933 161.041 C 216.165 160.809,216.599 160.619,216.898 160.619 C 217.196 160.619,217.440 160.492,217.440 160.338 C 217.440 160.183,218.119 160.056,218.948 160.056 C 222.444 160.056,222.979 159.855,223.169 158.468 C 223.262 157.787,223.464 157.074,223.616 156.885 C 225.092 155.054,226.241 154.436,228.176 154.432 C 228.589 154.431,228.969 154.306,229.020 154.155 C 229.072 154.003,230.414 153.794,232.003 153.690 C 235.193 153.481,234.945 153.666,235.267 151.263 C 235.345 150.681,235.606 150.008,235.848 149.766 C 236.089 149.525,236.287 149.212,236.287 149.071 C 236.287 148.930,236.635 148.730,237.060 148.626 C 237.486 148.522,237.905 148.330,237.991 148.199 C 238.077 148.068,239.533 147.811,241.226 147.627 C 244.061 147.319,245.007 146.997,245.007 146.344 C 245.007 146.028,246.141 145.031,246.777 144.787 C 247.041 144.686,247.257 144.344,247.257 144.029 C 247.257 143.713,247.525 143.234,247.851 142.965 C 248.178 142.696,248.619 142.310,248.832 142.108 C 249.044 141.906,250.136 141.663,251.258 141.569 C 254.455 141.301,254.826 140.366,251.735 140.366 C 250.974 140.366,250.352 140.239,250.352 140.084 C 250.352 139.930,250.058 139.803,249.699 139.803 C 248.834 139.803,247.257 138.370,247.257 137.583 C 247.257 137.152,247.011 136.875,246.454 136.681 C 246.012 136.527,245.474 136.059,245.259 135.641 C 244.722 134.598,244.484 134.468,243.108 134.463 C 242.451 134.460,241.913 134.332,241.913 134.177 C 241.913 134.023,241.476 133.896,240.942 133.896 C 238.555 133.896,236.006 132.932,236.006 132.028 C 236.006 131.844,235.869 131.647,235.701 131.591 C 235.534 131.535,235.312 130.797,235.209 129.950 L 235.021 128.411 233.122 128.328 C 232.078 128.282,231.224 128.138,231.224 128.009 C 231.224 127.879,230.274 127.685,229.114 127.576 C 227.954 127.467,227.004 127.289,227.004 127.179 C 227.004 127.070,226.447 126.831,225.766 126.649 C 224.813 126.394,224.440 126.121,224.150 125.465 C 223.942 124.997,223.681 124.613,223.570 124.613 C 223.458 124.613,223.283 123.980,223.180 123.207 C 223.078 122.433,222.852 121.795,222.678 121.788 C 219.571 121.667,216.549 121.230,216.165 120.847 C 215.916 120.598,215.405 120.394,215.029 120.394 C 214.653 120.394,214.346 120.277,214.346 120.134 C 214.346 119.992,213.910 119.731,213.378 119.555 C 212.647 119.314,212.331 118.999,212.090 118.268 C 211.914 117.735,211.662 117.300,211.530 117.300 C 211.397 117.300,211.249 116.956,211.200 116.537 C 211.094 115.625,210.469 115.399,207.947 115.359 C 206.980 115.343,206.188 115.218,206.188 115.081 C 206.188 114.943,205.773 114.753,205.265 114.657 C 204.303 114.477,203.376 113.642,203.376 112.955 C 203.376 112.735,203.103 112.469,202.769 112.363 C 202.240 112.195,201.715 111.715,200.567 110.349 C 200.410 110.163,200.281 109.878,200.281 109.717 C 200.281 109.555,199.712 109.423,199.015 109.423 C 198.319 109.423,197.750 109.297,197.750 109.142 C 197.750 108.987,197.275 108.858,196.695 108.854 C 194.341 108.839,191.842 107.703,191.842 106.648 C 191.842 106.473,191.730 106.329,191.594 106.329 C 191.457 106.329,191.258 105.633,191.151 104.782 L 190.958 103.235 189.009 103.235 C 187.937 103.235,187.060 103.123,187.060 102.987 C 187.060 102.850,186.111 102.649,184.951 102.541 C 183.790 102.432,182.841 102.243,182.841 102.121 C 182.841 101.999,182.431 101.817,181.930 101.717 C 180.854 101.501,179.747 100.323,179.747 99.394 C 179.747 99.031,179.620 98.734,179.466 98.734 C 179.311 98.734,179.184 98.306,179.184 97.782 L 179.184 96.831 177.286 96.652 C 172.846 96.234,172.152 96.136,172.152 95.925 C 172.152 95.803,171.709 95.619,171.167 95.518 C 170.626 95.416,170.183 95.225,170.183 95.092 C 170.183 94.960,169.803 94.719,169.339 94.557 C 168.875 94.395,168.495 94.066,168.495 93.826 C 168.495 93.586,168.379 93.390,168.236 93.390 C 168.094 93.390,167.894 93.010,167.792 92.546 C 167.690 92.082,167.490 91.702,167.348 91.702 C 167.205 91.702,167.089 91.463,167.089 91.172 C 167.089 90.645,166.172 90.273,165.461 90.510 " stroke="none" fill="#fcfcfc" fill-rule="evenodd"></path><path id="path2" d="M162.779 82.464 C 158.533 82.809,157.890 83.395,157.623 87.159 C 157.523 88.575,157.333 89.733,157.201 89.733 C 157.070 89.733,156.962 112.707,156.962 140.788 C 156.962 174.637,157.057 191.842,157.243 191.842 C 157.398 191.842,157.532 192.507,157.541 193.319 C 157.597 198.230,158.521 199.072,163.924 199.136 C 164.989 199.148,165.682 199.277,165.682 199.462 C 165.682 199.630,166.395 199.060,167.266 198.196 C 168.137 197.332,168.965 196.624,169.106 196.624 C 169.348 196.624,169.682 196.388,170.595 195.569 C 170.811 195.376,171.629 195.069,172.414 194.888 C 173.198 194.707,173.840 194.454,173.840 194.326 C 173.840 194.198,174.067 194.093,174.345 194.093 C 175.107 194.093,178.059 191.663,178.059 191.036 C 178.059 190.861,178.312 190.717,178.622 190.717 C 178.931 190.717,179.184 190.602,179.184 190.462 C 179.184 190.322,179.817 190.044,180.591 189.846 C 181.364 189.648,181.997 189.389,181.997 189.270 C 181.997 189.152,182.440 188.972,182.982 188.870 C 183.523 188.769,183.966 188.586,183.966 188.464 C 183.966 188.342,184.590 188.092,185.351 187.909 C 186.113 187.727,186.806 187.398,186.890 187.178 C 186.974 186.959,187.167 186.779,187.318 186.779 C 187.630 186.779,189.030 185.545,189.030 185.270 C 189.030 184.846,190.240 183.935,191.007 183.782 C 191.467 183.690,191.842 183.524,191.842 183.413 C 191.842 183.303,192.539 183.056,193.390 182.866 C 194.241 182.675,194.937 182.416,194.937 182.290 C 194.937 182.163,195.380 181.977,195.921 181.875 C 196.463 181.774,196.906 181.583,196.906 181.452 C 196.906 181.321,197.215 181.137,197.592 181.042 C 197.969 180.947,198.950 180.195,199.772 179.370 C 200.594 178.546,201.487 177.791,201.758 177.693 C 202.029 177.594,202.250 177.395,202.250 177.249 C 202.250 177.103,202.788 176.893,203.446 176.784 C 204.103 176.674,204.705 176.502,204.782 176.403 C 204.859 176.303,205.556 176.058,206.329 175.858 C 207.103 175.659,207.778 175.376,207.829 175.230 C 207.881 175.084,208.106 174.965,208.330 174.965 C 208.554 174.965,208.811 174.775,208.900 174.543 C 208.989 174.311,209.206 174.121,209.383 174.120 C 209.560 174.120,210.178 173.617,210.757 173.001 C 211.336 172.386,212.127 171.803,212.515 171.705 C 212.903 171.608,213.221 171.417,213.221 171.282 C 213.221 171.146,213.790 170.891,214.487 170.716 C 215.183 170.541,215.752 170.297,215.752 170.174 C 215.752 170.051,216.259 169.865,216.878 169.761 C 217.496 169.656,218.003 169.481,218.003 169.371 C 218.003 169.261,218.474 169.000,219.051 168.792 C 220.113 168.408,221.700 166.997,222.026 166.147 C 222.124 165.891,222.398 165.682,222.635 165.682 C 222.872 165.682,223.066 165.579,223.066 165.454 C 223.066 165.329,223.699 165.064,224.473 164.865 C 225.246 164.667,225.879 164.410,225.879 164.295 C 225.879 164.179,226.575 163.917,227.426 163.713 C 228.277 163.509,228.973 163.249,228.973 163.136 C 228.973 163.023,229.290 162.851,229.677 162.754 C 230.063 162.657,230.380 162.453,230.380 162.301 C 230.380 162.149,230.550 162.025,230.759 162.025 C 231.193 162.025,233.193 160.165,233.193 159.761 C 233.193 159.614,233.369 159.494,233.585 159.494 C 233.800 159.494,234.049 159.304,234.138 159.072 C 234.227 158.840,234.557 158.650,234.872 158.650 C 235.186 158.650,235.443 158.523,235.443 158.368 C 235.443 158.214,235.694 158.087,236.002 158.087 C 236.812 158.087,239.100 157.442,239.100 157.213 C 239.100 157.106,239.723 156.869,240.485 156.686 C 241.247 156.503,241.939 156.174,242.023 155.955 C 242.108 155.735,242.311 155.556,242.476 155.556 C 242.885 155.556,244.444 153.931,244.444 153.505 C 244.444 153.316,244.856 152.982,245.359 152.763 C 245.861 152.545,246.350 152.251,246.443 152.111 C 246.537 151.971,247.138 151.786,247.779 151.700 C 248.421 151.614,248.945 151.454,248.945 151.344 C 248.945 151.234,249.641 150.989,250.492 150.798 C 251.343 150.608,252.039 150.343,252.039 150.209 C 252.039 150.075,252.473 149.809,253.002 149.618 C 253.532 149.426,254.123 148.975,254.316 148.615 C 254.508 148.255,254.758 147.961,254.870 147.961 C 254.983 147.961,255.373 147.646,255.737 147.262 C 256.101 146.878,256.558 146.562,256.751 146.559 C 256.944 146.556,257.103 146.424,257.103 146.266 C 257.103 146.107,257.419 145.857,257.806 145.710 C 258.193 145.563,258.509 145.323,258.509 145.177 C 258.509 145.031,258.878 144.830,259.330 144.731 C 259.781 144.632,260.220 144.369,260.305 144.146 C 260.391 143.923,260.637 143.741,260.852 143.741 C 261.067 143.741,261.483 143.411,261.775 143.007 C 262.067 142.603,262.481 142.090,262.693 141.867 C 263.222 141.312,263.181 140.062,262.623 139.750 C 262.372 139.609,262.166 139.374,262.166 139.227 C 262.166 138.872,261.258 137.978,260.668 137.751 C 260.409 137.652,260.197 137.450,260.197 137.303 C 260.197 137.155,259.818 136.952,259.355 136.850 C 258.891 136.748,258.417 136.516,258.300 136.335 C 258.183 136.153,257.711 135.815,257.252 135.583 C 256.792 135.351,255.824 134.560,255.100 133.826 C 254.375 133.091,253.644 132.489,253.474 132.489 C 253.304 132.489,253.165 132.371,253.165 132.226 C 253.165 132.082,252.722 131.803,252.180 131.607 C 251.639 131.411,251.195 131.161,251.195 131.051 C 251.195 130.941,250.689 130.766,250.070 130.661 C 249.451 130.556,248.945 130.355,248.945 130.214 C 248.945 130.073,248.648 129.958,248.284 129.958 C 247.343 129.958,245.750 129.372,245.485 128.928 C 245.362 128.721,245.108 128.551,244.921 128.551 C 244.734 128.551,244.423 128.192,244.228 127.753 C 244.034 127.314,243.529 126.776,243.105 126.558 C 242.681 126.340,242.234 126.003,242.110 125.809 C 241.986 125.616,241.701 125.457,241.477 125.457 C 241.253 125.457,241.069 125.354,241.069 125.229 C 241.069 125.104,240.404 124.832,239.592 124.626 C 238.780 124.420,238.039 124.134,237.945 123.989 C 237.851 123.845,237.250 123.656,236.609 123.570 C 235.968 123.484,235.443 123.304,235.443 123.170 C 235.443 123.035,235.278 122.925,235.077 122.925 C 234.527 122.925,233.197 122.257,233.195 121.978 C 233.191 121.564,231.120 119.641,230.450 119.430 C 230.102 119.320,229.817 119.118,229.817 118.981 C 229.817 118.844,229.374 118.648,228.833 118.547 C 228.291 118.445,227.848 118.262,227.848 118.140 C 227.848 118.018,227.215 117.766,226.442 117.581 C 225.668 117.395,225.035 117.135,225.035 117.003 C 225.035 116.871,224.592 116.679,224.051 116.578 C 223.509 116.476,223.066 116.281,223.066 116.143 C 223.066 116.006,222.872 115.893,222.635 115.893 C 222.398 115.893,222.125 115.685,222.027 115.430 C 221.776 114.777,220.245 113.361,219.790 113.361 C 219.580 113.361,219.409 113.234,219.409 113.079 C 219.409 112.924,218.840 112.644,218.143 112.458 C 217.447 112.272,216.878 112.027,216.878 111.914 C 216.878 111.801,216.308 111.623,215.612 111.518 C 214.916 111.414,214.346 111.229,214.346 111.107 C 214.346 110.985,213.969 110.753,213.508 110.593 C 212.593 110.274,212.299 110.058,210.745 108.563 C 210.173 108.013,209.483 107.479,209.212 107.377 C 208.942 107.274,208.720 107.074,208.720 106.931 C 208.720 106.788,208.373 106.584,207.949 106.478 C 207.525 106.372,207.104 106.164,207.014 106.018 C 206.923 105.871,206.067 105.605,205.112 105.428 C 204.157 105.250,203.376 105.000,203.376 104.873 C 203.376 104.746,203.118 104.641,202.804 104.641 C 202.490 104.641,202.160 104.451,202.071 104.219 C 201.982 103.987,201.746 103.797,201.547 103.797 C 201.347 103.797,200.886 103.469,200.522 103.067 C 199.855 102.331,199.300 101.806,198.265 100.931 C 197.956 100.670,197.334 100.375,196.883 100.276 C 196.431 100.177,196.062 99.994,196.062 99.868 C 196.062 99.743,195.619 99.558,195.077 99.456 C 194.536 99.354,194.093 99.168,194.093 99.041 C 194.093 98.915,193.333 98.650,192.405 98.453 C 191.477 98.256,190.717 97.985,190.717 97.852 C 190.717 97.718,190.545 97.609,190.335 97.609 C 190.124 97.609,189.713 97.283,189.421 96.884 C 188.425 95.527,187.744 94.897,186.839 94.496 C 186.342 94.276,185.935 94.021,185.935 93.928 C 185.935 93.836,185.239 93.594,184.388 93.390 C 183.537 93.185,182.841 92.918,182.841 92.795 C 182.841 92.672,182.398 92.488,181.857 92.387 C 181.315 92.285,180.872 92.101,180.872 91.978 C 180.872 91.855,180.239 91.592,179.466 91.393 C 178.692 91.195,178.059 90.880,178.059 90.692 C 178.059 90.354,176.685 88.898,175.511 87.994 C 175.174 87.733,174.406 87.437,173.806 87.336 C 173.206 87.235,172.714 87.050,172.714 86.926 C 172.714 86.803,172.288 86.621,171.766 86.523 C 171.245 86.425,170.529 86.095,170.176 85.789 C 169.823 85.483,169.424 85.232,169.290 85.232 C 169.155 85.232,168.349 84.536,167.498 83.685 C 166.647 82.834,165.922 82.156,165.887 82.177 C 165.852 82.199,164.453 82.328,162.779 82.464 M167.089 88.068 C 167.089 88.185,167.468 88.365,167.932 88.467 C 168.397 88.569,168.776 88.752,168.776 88.873 C 168.776 88.994,169.536 89.254,170.464 89.451 C 171.392 89.648,172.152 89.905,172.152 90.022 C 172.152 90.139,172.460 90.312,172.836 90.406 C 173.213 90.501,173.601 90.829,173.698 91.136 C 173.952 91.936,175.452 93.360,176.252 93.561 C 176.627 93.655,176.934 93.832,176.934 93.955 C 176.934 94.077,177.567 94.329,178.340 94.515 C 179.114 94.700,179.747 94.952,179.747 95.074 C 179.747 95.196,180.190 95.379,180.731 95.481 C 181.273 95.582,181.716 95.766,181.716 95.889 C 181.716 96.012,182.412 96.280,183.263 96.484 C 184.114 96.688,184.810 97.006,184.810 97.191 C 184.810 97.900,187.323 100.112,188.528 100.464 C 189.190 100.658,189.796 100.899,189.873 101.000 C 189.951 101.101,190.679 101.342,191.491 101.534 C 192.303 101.727,192.968 101.985,192.968 102.107 C 192.968 102.230,193.270 102.406,193.640 102.499 C 194.010 102.592,194.991 103.301,195.820 104.076 C 198.054 106.162,198.234 106.299,199.008 106.493 C 199.399 106.591,199.719 106.771,199.719 106.892 C 199.719 107.013,200.541 107.275,201.547 107.475 C 202.553 107.675,203.376 107.932,203.376 108.046 C 203.376 108.160,203.764 108.339,204.238 108.443 C 204.713 108.547,205.170 108.810,205.253 109.028 C 205.336 109.245,205.581 109.423,205.797 109.423 C 206.012 109.423,206.188 109.549,206.188 109.702 C 206.188 110.110,207.895 111.674,208.340 111.674 C 208.549 111.674,208.720 111.807,208.720 111.970 C 208.720 112.132,209.100 112.398,209.564 112.560 C 210.028 112.722,210.408 112.968,210.408 113.108 C 210.408 113.247,210.715 113.361,211.091 113.361 C 211.467 113.361,211.941 113.523,212.146 113.720 C 212.350 113.917,213.326 114.242,214.315 114.442 C 215.303 114.642,216.293 114.987,216.515 115.209 C 216.737 115.431,217.035 115.612,217.179 115.612 C 217.323 115.612,217.440 115.788,217.440 116.004 C 217.440 116.219,217.630 116.468,217.862 116.557 C 218.094 116.646,218.284 116.913,218.284 117.150 C 218.284 117.387,218.446 117.581,218.644 117.581 C 218.841 117.581,219.220 117.834,219.485 118.143 C 219.750 118.453,220.157 118.706,220.391 118.706 C 220.625 118.706,220.816 118.809,220.816 118.934 C 220.816 119.060,221.477 119.332,222.284 119.539 C 223.092 119.746,223.924 120.086,224.133 120.295 C 224.342 120.504,224.820 120.675,225.196 120.675 C 225.572 120.675,225.879 120.788,225.879 120.925 C 225.879 121.063,226.322 121.258,226.864 121.360 C 227.839 121.543,228.468 122.048,229.806 123.727 C 230.187 124.204,230.852 124.672,231.283 124.767 C 231.715 124.862,232.068 125.050,232.068 125.185 C 232.068 125.321,232.511 125.515,233.052 125.616 C 233.594 125.718,234.037 125.890,234.037 125.998 C 234.037 126.106,234.669 126.357,235.443 126.555 C 236.217 126.753,236.850 127.028,236.850 127.166 C 236.850 127.303,237.166 127.495,237.553 127.592 C 237.940 127.689,238.256 127.881,238.256 128.019 C 238.256 128.157,238.426 128.270,238.633 128.270 C 238.841 128.270,239.527 128.776,240.158 129.395 C 240.789 130.014,241.447 130.520,241.618 130.520 C 241.790 130.520,242.000 130.701,242.085 130.922 C 242.169 131.143,242.862 131.483,243.623 131.678 C 244.384 131.874,245.007 132.125,245.007 132.237 C 245.007 132.348,245.513 132.526,246.132 132.630 C 246.751 132.735,247.257 132.926,247.257 133.054 C 247.257 133.183,247.645 133.374,248.120 133.478 C 248.620 133.588,249.705 134.364,250.706 135.329 C 251.655 136.243,252.596 136.990,252.798 136.990 C 252.999 136.990,253.165 137.117,253.165 137.271 C 253.165 137.426,253.348 137.553,253.573 137.553 C 253.797 137.553,254.082 137.711,254.205 137.905 C 254.329 138.098,254.810 138.446,255.274 138.678 C 255.738 138.909,256.219 139.257,256.343 139.451 C 256.467 139.645,256.752 139.803,256.976 139.803 C 257.200 139.803,257.384 139.911,257.384 140.044 C 257.384 140.176,257.795 140.416,258.298 140.578 C 258.801 140.739,258.991 140.884,258.720 140.900 C 258.449 140.915,258.228 141.045,258.228 141.187 C 258.228 141.330,257.848 141.530,257.384 141.632 C 256.920 141.733,256.540 141.937,256.540 142.083 C 256.540 142.229,256.224 142.469,255.837 142.616 C 255.450 142.763,255.134 142.989,255.134 143.119 C 255.134 143.249,254.691 143.529,254.149 143.741 C 253.608 143.954,253.165 144.230,253.165 144.356 C 253.165 144.482,253.019 144.585,252.841 144.585 C 252.663 144.585,251.832 145.281,250.995 146.131 C 250.158 146.981,249.165 147.755,248.787 147.849 C 248.410 147.944,248.101 148.129,248.101 148.260 C 248.101 148.391,247.658 148.581,247.117 148.682 C 246.575 148.784,246.132 148.959,246.132 149.072 C 246.132 149.185,245.436 149.433,244.585 149.624 C 243.734 149.814,243.038 150.057,243.038 150.162 C 243.038 150.268,242.627 150.536,242.124 150.757 C 241.621 150.978,240.681 151.700,240.035 152.362 C 239.389 153.024,238.534 153.647,238.136 153.747 C 237.738 153.847,237.412 154.037,237.412 154.168 C 237.412 154.300,236.906 154.559,236.287 154.745 C 235.668 154.930,235.162 155.177,235.162 155.294 C 235.162 155.411,234.655 155.592,234.037 155.696 C 233.418 155.801,232.911 155.982,232.911 156.098 C 232.911 156.215,232.400 156.464,231.775 156.651 C 230.621 156.997,228.973 158.434,228.973 159.095 C 228.973 159.294,228.530 159.617,227.989 159.813 C 227.447 160.009,227.004 160.263,227.004 160.377 C 227.004 160.491,226.435 160.670,225.738 160.774 C 225.042 160.879,224.473 161.074,224.473 161.209 C 224.473 161.344,223.903 161.598,223.207 161.773 C 222.511 161.949,221.941 162.188,221.941 162.305 C 221.941 162.422,221.559 162.594,221.092 162.687 C 220.625 162.781,219.968 163.113,219.632 163.426 C 219.297 163.739,218.856 163.994,218.653 163.994 C 218.450 163.994,218.284 164.188,218.284 164.425 C 218.284 164.662,218.094 164.929,217.862 165.018 C 217.630 165.107,217.440 165.310,217.440 165.468 C 217.440 166.007,216.283 166.763,215.172 166.951 C 214.563 167.054,214.065 167.242,214.065 167.370 C 214.065 167.497,213.558 167.687,212.940 167.792 C 212.321 167.896,211.814 168.097,211.814 168.239 C 211.814 168.380,211.567 168.495,211.265 168.495 C 210.541 168.495,209.200 169.094,208.917 169.544 C 208.793 169.741,208.552 169.902,208.381 169.902 C 208.210 169.902,207.589 170.408,207.000 171.027 C 206.411 171.646,205.812 172.152,205.667 172.152 C 205.523 172.152,205.332 172.342,205.243 172.574 C 205.154 172.806,204.887 172.996,204.650 172.996 C 204.413 172.996,204.219 173.116,204.219 173.263 C 204.219 173.410,203.460 173.679,202.532 173.862 C 201.603 174.045,200.844 174.290,200.844 174.408 C 200.844 174.525,200.401 174.704,199.859 174.806 C 199.318 174.907,198.875 175.111,198.875 175.259 C 198.875 175.407,198.717 175.529,198.523 175.531 C 198.107 175.536,196.985 176.393,195.511 177.834 C 194.926 178.406,194.114 178.957,193.707 179.060 C 193.300 179.162,192.968 179.352,192.968 179.483 C 192.968 179.614,192.525 179.804,191.983 179.906 C 191.442 180.008,190.999 180.183,190.999 180.296 C 190.999 180.409,190.302 180.657,189.451 180.847 C 188.601 181.038,187.904 181.311,187.904 181.455 C 187.904 181.598,187.761 181.716,187.586 181.716 C 187.190 181.716,184.810 184.069,184.810 184.461 C 184.810 184.618,184.367 184.831,183.826 184.932 C 183.284 185.034,182.841 185.218,182.841 185.341 C 182.841 185.464,182.145 185.731,181.294 185.935 C 180.443 186.139,179.747 186.407,179.747 186.530 C 179.747 186.653,179.304 186.837,178.762 186.938 C 178.221 187.040,177.778 187.226,177.778 187.351 C 177.778 187.476,177.398 187.662,176.933 187.764 C 176.088 187.950,173.840 189.807,173.840 190.320 C 173.840 190.837,172.714 191.553,171.380 191.883 C 170.644 192.066,169.979 192.296,169.902 192.394 C 169.824 192.493,169.203 192.736,168.521 192.936 C 167.838 193.135,167.115 193.445,166.913 193.625 C 165.906 194.521,165.803 194.567,165.495 194.259 C 165.327 194.090,164.834 193.699,164.402 193.390 C 163.309 192.609,162.588 191.804,162.588 191.367 C 162.588 191.165,162.461 190.999,162.307 190.999 C 162.120 190.999,162.025 174.074,162.025 140.788 C 162.025 107.501,162.120 90.577,162.307 90.577 C 162.461 90.577,162.588 90.418,162.588 90.225 C 162.589 89.848,164.408 88.032,165.267 87.552 C 165.799 87.254,167.089 87.619,167.089 88.068 " stroke="none" fill="#fc7c7c" fill-rule="evenodd"></path><path id="path3" d="M48.101 1.504 L 48.101 3.008 40.436 3.195 C 29.165 3.470,28.902 3.561,28.536 7.274 L 28.345 9.212 26.901 9.386 C 26.107 9.481,24.797 9.560,23.990 9.562 C 22.116 9.565,21.941 9.875,21.941 13.202 L 21.941 15.752 19.289 15.752 C 15.813 15.752,15.752 15.813,15.752 19.289 L 15.752 21.941 13.202 21.941 C 9.919 21.941,9.564 22.130,9.564 23.879 C 9.564 24.624,9.484 25.996,9.387 26.927 L 9.210 28.621 7.731 28.773 C 3.669 29.193,3.392 30.134,3.187 44.233 L 3.053 53.446 1.527 53.446 L 0.000 53.446 0.000 55.696 L 0.000 57.947 1.547 57.947 C 2.398 57.947,3.094 58.073,3.094 58.228 C 3.094 58.383,2.398 58.509,1.547 58.509 C 0.359 58.509,0.000 58.607,0.000 58.931 C 0.000 59.258,0.372 59.353,1.658 59.353 L 3.315 59.353 3.382 61.111 C 3.501 64.256,3.514 64.416,3.664 64.416 C 3.745 64.416,3.827 66.283,3.847 68.565 C 3.867 70.847,3.961 75.056,4.056 77.918 C 4.151 80.781,4.235 84.115,4.242 85.327 C 4.248 86.540,4.403 87.859,4.585 88.258 C 4.837 88.810,4.837 89.011,4.588 89.094 C 4.347 89.175,4.338 89.428,4.558 90.056 C 4.834 90.850,4.753 92.696,4.321 95.461 C 4.200 96.228,4.264 96.619,4.536 96.787 C 5.113 97.144,5.113 184.432,4.536 184.788 C 4.260 184.959,4.203 185.337,4.334 186.114 C 4.793 188.826,4.844 191.060,4.464 191.775 C 4.172 192.322,4.161 192.525,4.416 192.610 C 4.658 192.692,4.677 192.926,4.483 193.435 C 4.335 193.826,4.230 194.799,4.251 195.596 C 4.336 198.846,3.919 208.453,3.663 209.125 C 3.513 209.521,3.496 209.845,3.627 209.845 C 3.887 209.845,3.783 216.730,3.489 218.987 C 3.389 219.761,3.322 220.805,3.341 221.308 L 3.375 222.222 1.688 222.222 C -0.680 222.222,-0.739 222.992,1.617 223.140 L 3.235 223.241 1.617 223.294 L 0.000 223.347 0.000 225.738 L 0.000 228.129 1.526 228.129 L 3.053 228.129 3.187 237.201 C 3.394 251.148,3.677 252.102,7.731 252.521 L 9.210 252.673 9.387 254.367 C 9.484 255.298,9.564 256.677,9.564 257.432 C 9.564 259.142,9.984 259.353,13.380 259.353 L 15.752 259.353 15.752 262.005 C 15.752 265.477,15.817 265.541,19.262 265.541 L 21.888 265.541 21.985 268.341 C 22.106 271.859,22.093 271.846,25.577 271.966 L 28.343 272.062 28.539 274.049 C 28.904 277.760,30.339 278.200,42.064 278.200 L 48.101 278.200 48.101 279.747 L 48.101 281.294 200.000 281.294 L 351.899 281.294 351.899 279.747 L 351.899 278.200 358.446 278.200 C 370.273 278.200,371.227 277.893,371.570 273.980 L 371.730 272.152 374.393 272.070 C 377.987 271.960,378.059 271.886,378.059 268.311 L 378.059 265.541 380.816 265.541 C 382.585 265.541,383.693 265.421,383.910 265.204 C 384.127 264.987,384.248 263.879,384.248 262.110 L 384.248 259.353 387.017 259.353 C 390.592 259.353,390.666 259.281,390.776 255.687 L 390.858 253.024 392.686 252.864 C 396.608 252.520,396.678 252.332,396.846 241.702 L 396.977 233.474 398.488 233.474 L 400.000 233.474 400.000 226.723 L 400.000 219.972 398.453 219.972 C 396.084 219.972,396.145 218.922,398.523 218.773 L 400.141 218.672 398.523 218.619 C 397.058 218.570,396.903 218.506,396.879 217.932 C 396.794 215.911,396.606 196.411,396.609 189.803 C 396.611 184.980,396.508 181.997,396.341 181.997 C 396.168 181.997,396.069 167.040,396.069 140.788 C 396.069 113.647,396.165 99.578,396.349 99.578 C 396.525 99.578,396.616 97.898,396.593 95.077 C 396.573 92.602,396.449 90.577,396.317 90.577 C 396.184 90.577,396.192 90.271,396.334 89.898 C 396.476 89.525,396.605 88.038,396.621 86.593 C 396.637 85.148,396.693 79.536,396.746 74.121 C 396.800 68.706,396.857 63.934,396.874 63.516 C 396.904 62.795,396.988 62.751,398.523 62.655 L 400.141 62.554 398.523 62.500 C 396.234 62.425,396.169 61.603,398.453 61.603 L 400.000 61.603 400.000 54.712 L 400.000 47.820 398.489 47.820 L 396.977 47.820 396.828 39.733 C 396.630 29.002,396.538 28.752,392.677 28.475 L 390.717 28.335 390.717 25.754 C 390.717 22.174,390.652 22.107,387.084 21.985 L 384.248 21.888 384.248 19.262 C 384.248 15.817,384.183 15.752,380.711 15.752 L 378.059 15.752 378.059 13.202 C 378.059 9.875,377.884 9.565,376.010 9.562 C 375.203 9.560,373.878 9.479,373.066 9.382 L 371.589 9.204 371.588 7.907 C 371.582 3.517,370.472 3.124,358.017 3.104 L 352.180 3.094 352.180 1.547 L 352.180 0.000 200.141 0.000 L 48.101 0.000 48.101 1.504 M168.706 79.817 C 168.771 80.011,168.980 80.169,169.171 80.169 C 169.752 80.169,170.780 81.571,170.945 82.587 C 171.030 83.114,171.210 83.544,171.345 83.544 C 171.479 83.544,171.589 83.797,171.589 84.107 C 171.589 84.482,171.777 84.669,172.152 84.669 C 172.461 84.669,172.714 84.777,172.714 84.909 C 172.714 85.041,173.812 85.226,175.153 85.321 C 176.494 85.415,177.665 85.603,177.755 85.739 C 177.845 85.874,178.519 86.134,179.253 86.315 C 181.016 86.752,182.431 88.129,182.857 89.821 C 183.221 91.265,183.208 91.259,186.709 91.575 C 187.831 91.676,188.748 91.873,188.748 92.012 C 188.748 92.151,188.973 92.264,189.248 92.264 C 189.523 92.264,189.965 92.518,190.230 92.827 C 190.495 93.136,190.960 93.390,191.263 93.390 C 191.566 93.390,191.916 93.548,192.039 93.742 C 192.163 93.935,192.603 94.268,193.017 94.481 C 193.430 94.694,193.844 95.168,193.936 95.535 C 194.028 95.902,194.228 96.203,194.379 96.203 C 194.531 96.203,194.655 96.447,194.655 96.745 C 194.655 97.191,194.929 97.321,196.203 97.481 C 197.053 97.587,197.750 97.786,197.750 97.923 C 197.750 98.060,198.162 98.172,198.666 98.172 C 200.437 98.172,202.250 99.000,202.250 99.809 C 202.250 99.958,202.440 100.153,202.672 100.242 C 202.904 100.331,203.094 100.613,203.094 100.868 C 203.094 102.036,205.106 103.427,207.103 103.640 C 208.147 103.751,209.001 103.941,209.001 104.062 C 209.001 104.183,209.656 104.359,210.457 104.454 C 211.258 104.549,211.985 104.737,212.074 104.873 C 212.163 105.009,212.614 105.243,213.076 105.395 C 213.671 105.590,213.990 105.930,214.172 106.562 C 214.312 107.053,214.525 107.454,214.643 107.454 C 214.762 107.454,214.945 107.961,215.049 108.579 C 215.228 109.635,215.299 109.705,216.199 109.705 C 216.727 109.705,217.159 109.831,217.159 109.986 C 217.159 110.141,217.669 110.267,218.291 110.267 C 219.764 110.267,223.066 110.895,223.066 111.175 C 223.066 111.295,223.247 111.392,223.468 111.392 C 223.689 111.392,224.043 111.566,224.255 111.777 C 224.466 111.989,224.899 112.244,225.216 112.345 C 225.576 112.459,225.920 112.951,226.129 113.648 C 226.313 114.264,226.586 114.768,226.734 114.768 C 226.883 114.768,227.004 115.021,227.004 115.331 C 227.004 115.643,227.192 115.893,227.426 115.893 C 227.658 115.893,227.848 116.006,227.848 116.145 C 227.848 116.283,228.987 116.486,230.380 116.596 C 231.772 116.707,232.911 116.905,232.911 117.037 C 232.911 117.169,233.418 117.429,234.037 117.614 C 234.655 117.800,235.162 118.058,235.162 118.188 C 235.162 118.318,235.356 118.425,235.593 118.425 C 235.829 118.425,236.096 118.615,236.185 118.847 C 236.274 119.079,236.527 119.269,236.748 119.269 C 236.968 119.269,237.230 119.490,237.329 119.761 C 237.429 120.032,237.668 120.349,237.861 120.466 C 238.054 120.583,238.292 121.043,238.390 121.489 C 238.564 122.283,240.774 122.925,243.331 122.925 C 243.634 122.925,243.882 123.052,243.882 123.207 C 243.882 123.361,244.115 123.488,244.401 123.488 C 245.012 123.488,246.414 124.621,246.414 125.114 C 246.414 125.303,246.540 125.457,246.695 125.457 C 246.850 125.457,246.976 125.651,246.976 125.888 C 246.976 126.125,247.198 126.398,247.468 126.495 C 248.069 126.711,248.773 127.409,249.006 128.020 C 249.132 128.350,249.724 128.528,251.172 128.670 C 252.268 128.778,253.165 128.986,253.165 129.131 C 253.165 129.276,253.488 129.395,253.884 129.395 C 254.881 129.395,257.103 129.978,257.103 130.240 C 257.103 130.358,257.342 130.517,257.635 130.594 C 257.951 130.677,258.247 131.092,258.361 131.611 C 258.467 132.094,258.659 132.489,258.788 132.489 C 258.917 132.489,259.108 132.996,259.212 133.615 C 259.391 134.670,259.462 134.740,260.362 134.740 C 260.890 134.740,261.322 134.842,261.322 134.968 C 261.322 135.093,261.943 135.355,262.703 135.550 C 263.831 135.839,264.118 136.042,264.272 136.655 C 264.376 137.068,264.609 137.498,264.790 137.610 C 265.245 137.891,265.245 143.684,264.790 143.965 C 264.609 144.077,264.377 144.505,264.274 144.915 C 264.150 145.410,263.834 145.725,263.340 145.849 C 262.929 145.952,262.519 146.156,262.429 146.303 C 262.338 146.449,261.614 146.646,260.820 146.740 L 259.376 146.911 259.192 148.139 C 259.091 148.814,258.908 149.367,258.786 149.367 C 258.664 149.367,258.432 149.747,258.270 150.211 C 258.108 150.675,257.779 151.055,257.539 151.055 C 257.299 151.055,257.103 151.176,257.103 151.323 C 257.103 151.471,256.660 151.675,256.118 151.777 C 255.577 151.878,255.134 152.056,255.134 152.171 C 255.134 152.286,253.801 152.550,252.172 152.757 C 249.479 153.099,249.195 153.191,249.050 153.770 C 248.962 154.121,248.521 154.571,248.070 154.770 C 247.620 154.970,247.173 155.377,247.079 155.674 C 246.913 156.199,246.696 156.514,245.887 157.408 C 245.675 157.642,245.137 157.906,244.692 157.996 C 244.246 158.085,243.882 158.255,243.882 158.375 C 243.882 158.495,242.996 158.682,241.913 158.790 C 240.830 158.899,239.944 159.102,239.944 159.241 C 239.944 159.380,239.637 159.494,239.262 159.494 C 238.733 159.494,238.508 159.713,238.256 160.478 C 238.077 161.020,237.823 161.463,237.691 161.463 C 237.558 161.463,237.370 161.716,237.271 162.025 C 237.173 162.335,236.918 162.588,236.704 162.588 C 236.490 162.588,236.214 162.760,236.090 162.970 C 235.966 163.180,235.362 163.516,234.748 163.716 C 234.133 163.916,233.473 164.236,233.281 164.428 C 233.090 164.620,231.789 164.867,230.390 164.978 C 228.992 165.089,227.848 165.292,227.848 165.431 C 227.848 165.569,227.658 165.682,227.426 165.682 C 227.192 165.682,227.004 165.932,227.004 166.245 C 227.004 166.554,226.888 166.807,226.745 166.807 C 226.603 166.807,226.405 167.177,226.306 167.628 C 226.109 168.523,225.286 169.620,224.811 169.620 C 224.647 169.620,224.317 169.816,224.078 170.055 C 223.839 170.294,222.881 170.624,221.948 170.788 C 221.016 170.952,220.253 171.200,220.253 171.338 C 220.253 171.476,219.778 171.590,219.198 171.592 C 218.618 171.593,217.493 171.672,216.698 171.768 L 215.253 171.941 215.071 173.313 C 214.971 174.067,214.782 174.684,214.650 174.684 C 214.519 174.684,214.343 174.946,214.259 175.267 C 214.175 175.588,213.844 175.919,213.523 176.003 C 213.202 176.087,212.940 176.262,212.940 176.391 C 212.940 176.521,212.496 176.710,211.955 176.812 C 211.414 176.913,210.970 177.089,210.970 177.201 C 210.970 177.313,209.686 177.575,208.116 177.783 C 204.985 178.198,203.421 179.161,202.990 180.942 C 202.887 181.368,202.678 181.716,202.526 181.716 C 202.375 181.716,202.250 181.885,202.250 182.093 C 202.250 182.486,201.113 183.122,200.409 183.122 C 200.184 183.122,200.000 183.233,200.000 183.367 C 200.000 183.502,199.114 183.700,198.031 183.806 C 196.948 183.913,196.062 184.119,196.062 184.265 C 196.062 184.410,195.745 184.529,195.359 184.529 C 194.843 184.529,194.655 184.679,194.655 185.091 C 194.655 185.401,194.525 185.654,194.365 185.654 C 194.206 185.654,193.994 185.866,193.895 186.125 C 193.579 186.947,191.987 188.186,191.246 188.186 C 191.068 188.186,190.633 188.498,190.280 188.879 C 189.619 189.592,187.324 190.148,185.021 190.153 C 184.441 190.154,183.966 190.281,183.966 190.436 C 183.966 190.591,183.782 190.717,183.557 190.717 C 183.311 190.717,183.073 191.115,182.961 191.714 C 182.717 193.012,180.988 194.871,179.805 195.108 C 179.309 195.207,178.903 195.395,178.903 195.525 C 178.903 195.655,178.270 195.845,177.496 195.948 C 176.723 196.050,176.090 196.245,176.090 196.379 C 176.090 196.514,175.473 196.624,174.719 196.624 C 172.560 196.624,171.589 196.897,171.589 197.504 C 171.589 197.794,171.463 198.031,171.308 198.031 C 171.153 198.031,171.027 198.391,171.027 198.831 C 171.027 199.279,170.717 199.991,170.324 200.449 C 169.937 200.898,169.621 201.352,169.621 201.457 C 169.619 202.360,157.536 202.563,156.869 201.670 C 156.688 201.429,156.319 201.148,156.048 201.046 C 155.777 200.945,155.556 200.668,155.556 200.431 C 155.556 200.194,155.444 200.000,155.308 200.000 C 154.477 200.000,154.430 196.851,154.430 140.788 C 154.430 84.724,154.477 81.575,155.308 81.575 C 155.444 81.575,155.556 81.382,155.556 81.146 C 155.556 80.910,155.872 80.597,156.259 80.450 C 156.646 80.303,156.962 80.062,156.962 79.914 C 156.962 79.255,168.488 79.160,168.706 79.817 " stroke="none" fill="#fc0404" fill-rule="evenodd"></path><path id="path4" d="M0.000 58.228 C 0.000 58.383,0.696 58.509,1.547 58.509 C 2.398 58.509,3.094 58.383,3.094 58.228 C 3.094 58.073,2.398 57.947,1.547 57.947 C 0.696 57.947,0.000 58.073,0.000 58.228 M0.000 140.788 L 0.000 222.222 1.688 222.222 L 3.375 222.222 3.341 221.308 C 3.322 220.805,3.389 219.761,3.489 218.987 C 3.783 216.730,3.887 209.845,3.627 209.845 C 3.496 209.845,3.513 209.521,3.663 209.125 C 3.919 208.453,4.336 198.846,4.251 195.596 C 4.230 194.799,4.335 193.826,4.483 193.435 C 4.677 192.926,4.658 192.692,4.416 192.610 C 4.161 192.525,4.172 192.322,4.464 191.775 C 4.844 191.060,4.793 188.826,4.334 186.114 C 4.203 185.337,4.260 184.959,4.536 184.788 C 5.113 184.432,5.113 97.144,4.536 96.787 C 4.264 96.619,4.200 96.228,4.321 95.461 C 4.753 92.696,4.834 90.850,4.558 90.056 C 4.338 89.428,4.347 89.175,4.588 89.094 C 4.837 89.011,4.837 88.810,4.585 88.258 C 4.403 87.859,4.248 86.540,4.242 85.327 C 4.235 84.115,4.151 80.781,4.056 77.918 C 3.961 75.056,3.867 70.847,3.847 68.565 C 3.827 66.283,3.745 64.416,3.664 64.416 C 3.514 64.416,3.501 64.256,3.382 61.111 L 3.315 59.353 1.658 59.353 L 0.000 59.353 0.000 140.788 M396.906 62.025 C 396.906 62.349,397.265 62.447,398.453 62.447 C 399.641 62.447,400.000 62.349,400.000 62.025 C 400.000 61.701,399.641 61.603,398.453 61.603 C 397.265 61.603,396.906 61.701,396.906 62.025 M396.874 63.502 C 396.857 63.928,396.800 68.706,396.746 74.121 C 396.693 79.536,396.637 85.148,396.621 86.593 C 396.605 88.038,396.476 89.525,396.334 89.898 C 396.192 90.271,396.184 90.577,396.317 90.577 C 396.449 90.577,396.573 92.602,396.593 95.077 C 396.616 97.898,396.525 99.578,396.349 99.578 C 396.165 99.578,396.069 113.647,396.069 140.788 C 396.069 167.040,396.168 181.997,396.341 181.997 C 396.508 181.997,396.611 184.980,396.609 189.803 C 396.606 196.411,396.794 215.911,396.879 217.932 C 396.903 218.509,397.044 218.565,398.453 218.565 L 400.000 218.565 400.000 140.647 L 400.000 62.729 398.453 62.729 C 396.960 62.729,396.905 62.756,396.874 63.502 M157.595 79.513 C 157.247 79.586,156.962 79.766,156.962 79.914 C 156.962 80.062,156.646 80.303,156.259 80.450 C 155.872 80.597,155.556 80.910,155.556 81.146 C 155.556 81.382,155.444 81.575,155.308 81.575 C 154.477 81.575,154.430 84.724,154.430 140.788 C 154.430 196.851,154.477 200.000,155.308 200.000 C 155.444 200.000,155.556 200.194,155.556 200.431 C 155.556 200.668,155.777 200.945,156.048 201.046 C 156.319 201.148,156.688 201.429,156.869 201.670 C 157.536 202.563,169.619 202.360,169.621 201.457 C 169.621 201.352,169.937 200.898,170.324 200.449 C 170.717 199.991,171.027 199.279,171.027 198.831 C 171.027 198.391,171.153 198.031,171.308 198.031 C 171.463 198.031,171.589 197.794,171.589 197.504 C 171.589 196.897,172.560 196.624,174.719 196.624 C 175.473 196.624,176.090 196.514,176.090 196.379 C 176.090 196.245,176.723 196.050,177.496 195.948 C 178.270 195.845,178.903 195.655,178.903 195.525 C 178.903 195.395,179.309 195.207,179.805 195.108 C 180.988 194.871,182.717 193.012,182.961 191.714 C 183.073 191.115,183.311 190.717,183.557 190.717 C 183.782 190.717,183.966 190.591,183.966 190.436 C 183.966 190.281,184.441 190.154,185.021 190.153 C 187.324 190.148,189.619 189.592,190.280 188.879 C 190.633 188.498,191.068 188.186,191.246 188.186 C 191.987 188.186,193.579 186.947,193.895 186.125 C 193.994 185.866,194.206 185.654,194.365 185.654 C 194.525 185.654,194.655 185.401,194.655 185.091 C 194.655 184.679,194.843 184.529,195.359 184.529 C 195.745 184.529,196.062 184.410,196.062 184.265 C 196.062 184.119,196.948 183.913,198.031 183.806 C 199.114 183.700,200.000 183.502,200.000 183.367 C 200.000 183.233,200.184 183.122,200.409 183.122 C 201.113 183.122,202.250 182.486,202.250 182.093 C 202.250 181.885,202.375 181.716,202.526 181.716 C 202.678 181.716,202.887 181.368,202.990 180.942 C 203.421 179.161,204.985 178.198,208.116 177.783 C 209.686 177.575,210.970 177.313,210.970 177.201 C 210.970 177.089,211.414 176.913,211.955 176.812 C 212.496 176.710,212.940 176.521,212.940 176.391 C 212.940 176.262,213.202 176.087,213.523 176.003 C 213.844 175.919,214.175 175.588,214.259 175.267 C 214.343 174.946,214.519 174.684,214.650 174.684 C 214.782 174.684,214.971 174.067,215.071 173.313 L 215.253 171.941 216.698 171.768 C 217.493 171.672,218.618 171.593,219.198 171.592 C 219.778 171.590,220.253 171.476,220.253 171.338 C 220.253 171.200,221.016 170.952,221.948 170.788 C 222.881 170.624,223.839 170.294,224.078 170.055 C 224.317 169.816,224.647 169.620,224.811 169.620 C 225.286 169.620,226.109 168.523,226.306 167.628 C 226.405 167.177,226.603 166.807,226.745 166.807 C 226.888 166.807,227.004 166.554,227.004 166.245 C 227.004 165.932,227.192 165.682,227.426 165.682 C 227.658 165.682,227.848 165.569,227.848 165.431 C 227.848 165.292,228.992 165.089,230.390 164.978 C 231.789 164.867,233.090 164.620,233.281 164.428 C 233.473 164.236,234.133 163.916,234.748 163.716 C 235.362 163.516,235.966 163.180,236.090 162.970 C 236.214 162.760,236.490 162.588,236.704 162.588 C 236.918 162.588,237.173 162.335,237.271 162.025 C 237.370 161.716,237.558 161.463,237.691 161.463 C 237.823 161.463,238.077 161.020,238.256 160.478 C 238.508 159.713,238.733 159.494,239.262 159.494 C 239.637 159.494,239.944 159.380,239.944 159.241 C 239.944 159.102,240.830 158.899,241.913 158.790 C 242.996 158.682,243.882 158.495,243.882 158.375 C 243.882 158.255,244.246 158.085,244.692 157.996 C 245.137 157.906,245.675 157.642,245.887 157.408 C 246.696 156.514,246.913 156.199,247.079 155.674 C 247.173 155.377,247.620 154.970,248.070 154.770 C 248.521 154.571,248.962 154.121,249.050 153.770 C 249.195 153.191,249.479 153.099,252.172 152.757 C 253.801 152.550,255.134 152.286,255.134 152.171 C 255.134 152.056,255.577 151.878,256.118 151.777 C 256.660 151.675,257.103 151.471,257.103 151.323 C 257.103 151.176,257.299 151.055,257.539 151.055 C 257.779 151.055,258.108 150.675,258.270 150.211 C 258.432 149.747,258.664 149.367,258.786 149.367 C 258.908 149.367,259.091 148.814,259.192 148.139 L 259.376 146.911 260.820 146.740 C 261.614 146.646,262.338 146.449,262.429 146.303 C 262.519 146.156,262.929 145.952,263.340 145.849 C 263.834 145.725,264.150 145.410,264.274 144.915 C 264.377 144.505,264.609 144.077,264.790 143.965 C 265.245 143.684,265.245 137.891,264.790 137.610 C 264.609 137.498,264.376 137.068,264.272 136.655 C 264.118 136.042,263.831 135.839,262.703 135.550 C 261.943 135.355,261.322 135.093,261.322 134.968 C 261.322 134.842,260.890 134.740,260.362 134.740 C 259.462 134.740,259.391 134.670,259.212 133.615 C 259.108 132.996,258.917 132.489,258.788 132.489 C 258.659 132.489,258.467 132.094,258.361 131.611 C 258.247 131.092,257.951 130.677,257.635 130.594 C 257.342 130.517,257.103 130.358,257.103 130.240 C 257.103 129.978,254.881 129.395,253.884 129.395 C 253.488 129.395,253.165 129.276,253.165 129.131 C 253.165 128.986,252.268 128.778,251.172 128.670 C 249.724 128.528,249.132 128.350,249.006 128.020 C 248.773 127.409,248.069 126.711,247.468 126.495 C 247.198 126.398,246.976 126.125,246.976 125.888 C 246.976 125.651,246.850 125.457,246.695 125.457 C 246.540 125.457,246.414 125.303,246.414 125.114 C 246.414 124.621,245.012 123.488,244.401 123.488 C 244.115 123.488,243.882 123.361,243.882 123.207 C 243.882 123.052,243.634 122.925,243.331 122.925 C 240.774 122.925,238.564 122.283,238.390 121.489 C 238.292 121.043,238.054 120.583,237.861 120.466 C 237.668 120.349,237.429 120.032,237.329 119.761 C 237.230 119.490,236.968 119.269,236.748 119.269 C 236.527 119.269,236.274 119.079,236.185 118.847 C 236.096 118.615,235.829 118.425,235.593 118.425 C 235.356 118.425,235.162 118.318,235.162 118.188 C 235.162 118.058,234.655 117.800,234.037 117.614 C 233.418 117.429,232.911 117.169,232.911 117.037 C 232.911 116.905,231.772 116.707,230.380 116.596 C 228.987 116.486,227.848 116.283,227.848 116.145 C 227.848 116.006,227.658 115.893,227.426 115.893 C 227.192 115.893,227.004 115.643,227.004 115.331 C 227.004 115.021,226.883 114.768,226.734 114.768 C 226.586 114.768,226.313 114.264,226.129 113.648 C 225.920 112.951,225.576 112.459,225.216 112.345 C 224.899 112.244,224.466 111.989,224.255 111.777 C 224.043 111.566,223.689 111.392,223.468 111.392 C 223.247 111.392,223.066 111.295,223.066 111.175 C 223.066 110.895,219.764 110.267,218.291 110.267 C 217.669 110.267,217.159 110.141,217.159 109.986 C 217.159 109.831,216.727 109.705,216.199 109.705 C 215.299 109.705,215.228 109.635,215.049 108.579 C 214.945 107.961,214.762 107.454,214.643 107.454 C 214.525 107.454,214.312 107.053,214.172 106.562 C 213.990 105.930,213.671 105.590,213.076 105.395 C 212.614 105.243,212.163 105.009,212.074 104.873 C 211.985 104.737,211.258 104.549,210.457 104.454 C 209.656 104.359,209.001 104.183,209.001 104.062 C 209.001 103.941,208.147 103.751,207.103 103.640 C 205.106 103.427,203.094 102.036,203.094 100.868 C 203.094 100.613,202.904 100.331,202.672 100.242 C 202.440 100.153,202.250 99.958,202.250 99.809 C 202.250 99.000,200.437 98.172,198.666 98.172 C 198.162 98.172,197.750 98.060,197.750 97.923 C 197.750 97.786,197.053 97.587,196.203 97.481 C 194.929 97.321,194.655 97.191,194.655 96.745 C 194.655 96.447,194.531 96.203,194.379 96.203 C 194.228 96.203,194.028 95.902,193.936 95.535 C 193.844 95.168,193.430 94.694,193.017 94.481 C 192.603 94.268,192.163 93.935,192.039 93.742 C 191.916 93.548,191.566 93.390,191.263 93.390 C 190.960 93.390,190.495 93.136,190.230 92.827 C 189.965 92.518,189.523 92.264,189.248 92.264 C 188.973 92.264,188.748 92.151,188.748 92.012 C 188.748 91.873,187.831 91.676,186.709 91.575 C 183.208 91.259,183.221 91.265,182.857 89.821 C 182.431 88.129,181.016 86.752,179.253 86.315 C 178.519 86.134,177.845 85.874,177.755 85.739 C 177.665 85.603,176.494 85.415,175.153 85.321 C 173.812 85.226,172.714 85.041,172.714 84.909 C 172.714 84.777,172.461 84.669,172.152 84.669 C 171.777 84.669,171.589 84.482,171.589 84.107 C 171.589 83.797,171.479 83.544,171.345 83.544 C 171.210 83.544,171.030 83.114,170.945 82.587 C 170.780 81.571,169.752 80.169,169.171 80.169 C 168.980 80.169,168.771 80.011,168.706 79.817 C 168.589 79.464,159.071 79.203,157.595 79.513 M167.498 83.685 C 168.349 84.536,169.155 85.232,169.290 85.232 C 169.424 85.232,169.823 85.483,170.176 85.789 C 170.529 86.095,171.245 86.425,171.766 86.523 C 172.288 86.621,172.714 86.803,172.714 86.926 C 172.714 87.050,173.206 87.235,173.806 87.336 C 174.406 87.437,175.174 87.733,175.511 87.994 C 176.685 88.898,178.059 90.354,178.059 90.692 C 178.059 90.880,178.692 91.195,179.466 91.393 C 180.239 91.592,180.872 91.855,180.872 91.978 C 180.872 92.101,181.315 92.285,181.857 92.387 C 182.398 92.488,182.841 92.672,182.841 92.795 C 182.841 92.918,183.537 93.185,184.388 93.390 C 185.239 93.594,185.935 93.836,185.935 93.928 C 185.935 94.021,186.342 94.276,186.839 94.496 C 187.744 94.897,188.425 95.527,189.421 96.884 C 189.713 97.283,190.124 97.609,190.335 97.609 C 190.545 97.609,190.717 97.718,190.717 97.852 C 190.717 97.985,191.477 98.256,192.405 98.453 C 193.333 98.650,194.093 98.915,194.093 99.041 C 194.093 99.168,194.536 99.354,195.077 99.456 C 195.619 99.558,196.062 99.743,196.062 99.868 C 196.062 99.994,196.431 100.177,196.883 100.276 C 197.334 100.375,197.956 100.670,198.265 100.931 C 199.300 101.806,199.855 102.331,200.522 103.067 C 200.886 103.469,201.347 103.797,201.547 103.797 C 201.746 103.797,201.982 103.987,202.071 104.219 C 202.160 104.451,202.490 104.641,202.804 104.641 C 203.118 104.641,203.376 104.746,203.376 104.873 C 203.376 105.000,204.157 105.250,205.112 105.428 C 206.067 105.605,206.923 105.871,207.014 106.018 C 207.104 106.164,207.525 106.372,207.949 106.478 C 208.373 106.584,208.720 106.788,208.720 106.931 C 208.720 107.074,208.942 107.274,209.212 107.377 C 209.483 107.479,210.173 108.013,210.745 108.563 C 212.299 110.058,212.593 110.274,213.508 110.593 C 213.969 110.753,214.346 110.985,214.346 111.107 C 214.346 111.229,214.916 111.414,215.612 111.518 C 216.308 111.623,216.878 111.801,216.878 111.914 C 216.878 112.027,217.447 112.272,218.143 112.458 C 218.840 112.644,219.409 112.924,219.409 113.079 C 219.409 113.234,219.580 113.361,219.790 113.361 C 220.245 113.361,221.776 114.777,222.027 115.430 C 222.125 115.685,222.398 115.893,222.635 115.893 C 222.872 115.893,223.066 116.006,223.066 116.143 C 223.066 116.281,223.509 116.476,224.051 116.578 C 224.592 116.679,225.035 116.871,225.035 117.003 C 225.035 117.135,225.668 117.395,226.442 117.581 C 227.215 117.766,227.848 118.018,227.848 118.140 C 227.848 118.262,228.291 118.445,228.833 118.547 C 229.374 118.648,229.817 118.844,229.817 118.981 C 229.817 119.118,230.102 119.320,230.450 119.430 C 231.120 119.641,233.191 121.564,233.195 121.978 C 233.197 122.257,234.527 122.925,235.077 122.925 C 235.278 122.925,235.443 123.035,235.443 123.170 C 235.443 123.304,235.968 123.484,236.609 123.570 C 237.250 123.656,237.851 123.845,237.945 123.989 C 238.039 124.134,238.780 124.420,239.592 124.626 C 240.404 124.832,241.069 125.104,241.069 125.229 C 241.069 125.354,241.253 125.457,241.477 125.457 C 241.701 125.457,241.986 125.616,242.110 125.809 C 242.234 126.003,242.681 126.340,243.105 126.558 C 243.529 126.776,244.034 127.314,244.228 127.753 C 244.423 128.192,244.734 128.551,244.921 128.551 C 245.108 128.551,245.362 128.721,245.485 128.928 C 245.750 129.372,247.343 129.958,248.284 129.958 C 248.648 129.958,248.945 130.073,248.945 130.214 C 248.945 130.355,249.451 130.556,250.070 130.661 C 250.689 130.766,251.195 130.941,251.195 131.051 C 251.195 131.161,251.639 131.411,252.180 131.607 C 252.722 131.803,253.165 132.082,253.165 132.226 C 253.165 132.371,253.304 132.489,253.474 132.489 C 253.644 132.489,254.375 133.091,255.100 133.826 C 255.824 134.560,256.792 135.351,257.252 135.583 C 257.711 135.815,258.183 136.153,258.300 136.335 C 258.417 136.516,258.891 136.748,259.355 136.850 C 259.818 136.952,260.197 137.155,260.197 137.303 C 260.197 137.450,260.409 137.652,260.668 137.751 C 261.258 137.978,262.166 138.872,262.166 139.227 C 262.166 139.374,262.372 139.609,262.623 139.750 C 263.181 140.062,263.222 141.312,262.693 141.867 C 262.481 142.090,262.067 142.603,261.775 143.007 C 261.483 143.411,261.067 143.741,260.852 143.741 C 260.637 143.741,260.391 143.923,260.305 144.146 C 260.220 144.369,259.781 144.632,259.330 144.731 C 258.878 144.830,258.509 145.031,258.509 145.177 C 258.509 145.323,258.193 145.563,257.806 145.710 C 257.419 145.857,257.103 146.107,257.103 146.266 C 257.103 146.424,256.944 146.556,256.751 146.559 C 256.558 146.562,256.101 146.878,255.737 147.262 C 255.373 147.646,254.983 147.961,254.870 147.961 C 254.758 147.961,254.508 148.255,254.316 148.615 C 254.123 148.975,253.532 149.426,253.002 149.618 C 252.473 149.809,252.039 150.075,252.039 150.209 C 252.039 150.343,251.343 150.608,250.492 150.798 C 249.641 150.989,248.945 151.234,248.945 151.344 C 248.945 151.454,248.421 151.614,247.779 151.700 C 247.138 151.786,246.537 151.971,246.443 152.111 C 246.350 152.251,245.861 152.545,245.359 152.763 C 244.856 152.982,244.444 153.316,244.444 153.505 C 244.444 153.931,242.885 155.556,242.476 155.556 C 242.311 155.556,242.108 155.735,242.023 155.955 C 241.939 156.174,241.247 156.503,240.485 156.686 C 239.723 156.869,239.100 157.106,239.100 157.213 C 239.100 157.442,236.812 158.087,236.002 158.087 C 235.694 158.087,235.443 158.214,235.443 158.368 C 235.443 158.523,235.186 158.650,234.872 158.650 C 234.557 158.650,234.227 158.840,234.138 159.072 C 234.049 159.304,233.800 159.494,233.585 159.494 C 233.369 159.494,233.193 159.614,233.193 159.761 C 233.193 160.165,231.193 162.025,230.759 162.025 C 230.550 162.025,230.380 162.149,230.380 162.301 C 230.380 162.453,230.063 162.657,229.677 162.754 C 229.290 162.851,228.973 163.023,228.973 163.136 C 228.973 163.249,228.277 163.509,227.426 163.713 C 226.575 163.917,225.879 164.179,225.879 164.295 C 225.879 164.410,225.246 164.667,224.473 164.865 C 223.699 165.064,223.066 165.329,223.066 165.454 C 223.066 165.579,222.872 165.682,222.635 165.682 C 222.398 165.682,222.124 165.891,222.026 166.147 C 221.700 166.997,220.113 168.408,219.051 168.792 C 218.474 169.000,218.003 169.261,218.003 169.371 C 218.003 169.481,217.496 169.656,216.878 169.761 C 216.259 169.865,215.752 170.051,215.752 170.174 C 215.752 170.297,215.183 170.541,214.487 170.716 C 213.790 170.891,213.221 171.146,213.221 171.282 C 213.221 171.417,212.903 171.608,212.515 171.705 C 212.127 171.803,211.336 172.386,210.757 173.001 C 210.178 173.617,209.560 174.120,209.383 174.120 C 209.206 174.121,208.989 174.311,208.900 174.543 C 208.811 174.775,208.554 174.965,208.330 174.965 C 208.106 174.965,207.881 175.084,207.829 175.230 C 207.778 175.376,207.103 175.659,206.329 175.858 C 205.556 176.058,204.859 176.303,204.782 176.403 C 204.705 176.502,204.103 176.674,203.446 176.784 C 202.788 176.893,202.250 177.103,202.250 177.249 C 202.250 177.395,202.029 177.594,201.758 177.693 C 201.487 177.791,200.594 178.546,199.772 179.370 C 198.950 180.195,197.969 180.947,197.592 181.042 C 197.215 181.137,196.906 181.321,196.906 181.452 C 196.906 181.583,196.463 181.774,195.921 181.875 C 195.380 181.977,194.937 182.163,194.937 182.290 C 194.937 182.416,194.241 182.675,193.390 182.866 C 192.539 183.056,191.842 183.303,191.842 183.413 C 191.842 183.524,191.467 183.690,191.007 183.782 C 190.240 183.935,189.030 184.846,189.030 185.270 C 189.030 185.545,187.630 186.779,187.318 186.779 C 187.167 186.779,186.974 186.959,186.890 187.178 C 186.806 187.398,186.113 187.727,185.351 187.909 C 184.590 188.092,183.966 188.342,183.966 188.464 C 183.966 188.586,183.523 188.769,182.982 188.870 C 182.440 188.972,181.997 189.152,181.997 189.270 C 181.997 189.389,181.364 189.648,180.591 189.846 C 179.817 190.044,179.184 190.322,179.184 190.462 C 179.184 190.602,178.931 190.717,178.622 190.717 C 178.312 190.717,178.059 190.861,178.059 191.036 C 178.059 191.663,175.107 194.093,174.345 194.093 C 174.067 194.093,173.840 194.198,173.840 194.326 C 173.840 194.454,173.198 194.707,172.414 194.888 C 171.629 195.069,170.811 195.376,170.595 195.569 C 169.682 196.388,169.348 196.624,169.106 196.624 C 168.965 196.624,168.137 197.332,167.266 198.196 C 166.395 199.060,165.682 199.630,165.682 199.462 C 165.682 199.277,164.989 199.148,163.924 199.136 C 158.521 199.072,157.597 198.230,157.541 193.319 C 157.532 192.507,157.398 191.842,157.243 191.842 C 157.057 191.842,156.962 174.637,156.962 140.788 C 156.962 112.707,157.070 89.733,157.201 89.733 C 157.333 89.733,157.523 88.575,157.623 87.159 C 157.890 83.395,158.533 82.809,162.779 82.464 C 164.453 82.328,165.852 82.199,165.887 82.177 C 165.922 82.156,166.647 82.834,167.498 83.685 M396.906 219.409 C 396.906 219.904,397.093 219.972,398.453 219.972 C 399.812 219.972,400.000 219.904,400.000 219.409 C 400.000 218.915,399.812 218.847,398.453 218.847 C 397.093 218.847,396.906 218.915,396.906 219.409 M0.779 223.270 C 1.284 223.333,2.044 223.331,2.466 223.267 C 2.889 223.203,2.475 223.152,1.547 223.153 C 0.619 223.155,0.273 223.207,0.779 223.270 " stroke="none" fill="#fc1c1c" fill-rule="evenodd"></path></g></svg>